<mxfile host="65bd71144e">
    <diagram id="OsEsV3oLFa_AIuTI-Xmr" name="第 1 页">
        <mxGraphModel dx="970" dy="500" grid="1" gridSize="10" guides="1" tooltips="1" connect="1" arrows="1" fold="1" page="1" pageScale="1" pageWidth="827" pageHeight="1169" background="#ffffff" math="0" shadow="0">
            <root>
                <mxCell id="0"/>
                <mxCell id="1" parent="0"/>
                <mxCell id="5" value="nioeventloop" style="shape=umlLifeline;perimeter=lifelinePerimeter;whiteSpace=wrap;html=1;container=1;collapsible=0;recursiveResize=0;outlineConnect=0;fillColor=#f8cecc;strokeColor=#b85450;fontColor=#000000;" vertex="1" parent="1">
                    <mxGeometry x="60" y="270" width="110" height="450" as="geometry"/>
                </mxCell>
                <mxCell id="6" value="" style="shape=umlDestroy;dashed=0;" vertex="1" parent="5">
                    <mxGeometry x="30" y="280" width="40" height="40" as="geometry"/>
                </mxCell>
                <mxCell id="7" value="&lt;pre style=&quot;background-color: #2b2b2b ; color: #a9b7c6 ; font-family: &amp;#34;consolas&amp;#34; ; font-size: 9.8pt&quot;&gt;&lt;span style=&quot;color: #ffc66d&quot;&gt;doConnect&lt;/span&gt;&lt;/pre&gt;" style="rounded=0;whiteSpace=wrap;html=1;strokeColor=#d6b656;fillColor=#fff2cc;" vertex="1" parent="5">
                    <mxGeometry x="15" y="70" width="70" height="40" as="geometry"/>
                </mxCell>
                <mxCell id="8" value="niosocketchannel" style="shape=umlLifeline;perimeter=lifelinePerimeter;whiteSpace=wrap;html=1;container=1;collapsible=0;recursiveResize=0;outlineConnect=0;fillColor=#f8cecc;strokeColor=#b85450;fontColor=#000000;" vertex="1" parent="1">
                    <mxGeometry x="200" y="270" width="100" height="450" as="geometry"/>
                </mxCell>
                <mxCell id="9" value="" style="shape=umlDestroy;dashed=0;" vertex="1" parent="8">
                    <mxGeometry x="30" y="280" width="40" height="40" as="geometry"/>
                </mxCell>
                <mxCell id="10" value="&lt;pre style=&quot;background-color: #2b2b2b ; color: #a9b7c6 ; font-family: &amp;#34;consolas&amp;#34; ; font-size: 9.8pt&quot;&gt;&lt;pre style=&quot;font-family: &amp;#34;consolas&amp;#34; ; font-size: 9.8pt&quot;&gt;&lt;span style=&quot;color: #ffc66d&quot;&gt;connect&lt;/span&gt;&lt;/pre&gt;&lt;/pre&gt;" style="rounded=0;whiteSpace=wrap;html=1;strokeColor=#d6b656;fillColor=#fff2cc;" vertex="1" parent="8">
                    <mxGeometry x="15" y="140" width="70" height="40" as="geometry"/>
                </mxCell>
                <mxCell id="11" value="DefaultChannelPipeline" style="shape=umlLifeline;perimeter=lifelinePerimeter;whiteSpace=wrap;html=1;container=1;collapsible=0;recursiveResize=0;outlineConnect=0;fillColor=#f8cecc;strokeColor=#b85450;fontColor=#000000;" vertex="1" parent="1">
                    <mxGeometry x="340" y="270" width="110" height="450" as="geometry"/>
                </mxCell>
                <mxCell id="12" value="" style="shape=umlDestroy;dashed=0;" vertex="1" parent="11">
                    <mxGeometry x="30" y="280" width="40" height="40" as="geometry"/>
                </mxCell>
                <mxCell id="13" value="&lt;pre style=&quot;background-color: #2b2b2b ; color: #a9b7c6 ; font-family: &amp;#34;consolas&amp;#34; ; font-size: 9.8pt&quot;&gt;&lt;pre style=&quot;font-family: &amp;#34;consolas&amp;#34; ; font-size: 9.8pt&quot;&gt;&lt;pre style=&quot;font-size: 9.8pt ; font-family: &amp;#34;consolas&amp;#34;&quot;&gt;&lt;span style=&quot;color: rgb(255 , 198 , 109)&quot;&gt;doconnect&lt;/span&gt;&lt;/pre&gt;&lt;/pre&gt;&lt;/pre&gt;" style="rounded=0;whiteSpace=wrap;html=1;strokeColor=#d6b656;fillColor=#fff2cc;" vertex="1" parent="11">
                    <mxGeometry x="20" y="200" width="70" height="40" as="geometry"/>
                </mxCell>
                <mxCell id="14" value="tailcontext" style="shape=umlLifeline;perimeter=lifelinePerimeter;whiteSpace=wrap;html=1;container=1;collapsible=0;recursiveResize=0;outlineConnect=0;fillColor=#f8cecc;strokeColor=#b85450;fontColor=#000000;" vertex="1" parent="1">
                    <mxGeometry x="480" y="270" width="110" height="450" as="geometry"/>
                </mxCell>
                <mxCell id="15" value="" style="shape=umlDestroy;dashed=0;" vertex="1" parent="14">
                    <mxGeometry x="30" y="280" width="40" height="40" as="geometry"/>
                </mxCell>
                <mxCell id="16" value="&lt;pre style=&quot;background-color: #2b2b2b ; color: #a9b7c6 ; font-family: &amp;#34;consolas&amp;#34; ; font-size: 9.8pt&quot;&gt;&lt;pre style=&quot;font-family: &amp;#34;consolas&amp;#34; ; font-size: 9.8pt&quot;&gt;&lt;pre style=&quot;font-size: 9.8pt ; font-family: &amp;#34;consolas&amp;#34;&quot;&gt;&lt;span style=&quot;color: rgb(255 , 198 , 109)&quot;&gt;doconnect&lt;/span&gt;&lt;/pre&gt;&lt;/pre&gt;&lt;/pre&gt;" style="rounded=0;whiteSpace=wrap;html=1;strokeColor=#d6b656;fillColor=#fff2cc;" vertex="1" parent="14">
                    <mxGeometry x="20" y="260" width="70" height="40" as="geometry"/>
                </mxCell>
                <mxCell id="18" value="headcontext" style="shape=umlLifeline;perimeter=lifelinePerimeter;whiteSpace=wrap;html=1;container=1;collapsible=0;recursiveResize=0;outlineConnect=0;fillColor=#f8cecc;strokeColor=#b85450;fontColor=#000000;" vertex="1" parent="1">
                    <mxGeometry x="620" y="270" width="110" height="450" as="geometry"/>
                </mxCell>
                <mxCell id="19" value="" style="shape=umlDestroy;dashed=0;" vertex="1" parent="18">
                    <mxGeometry x="30" y="280" width="40" height="40" as="geometry"/>
                </mxCell>
                <mxCell id="20" value="&lt;pre style=&quot;background-color: #2b2b2b ; color: #a9b7c6 ; font-family: &amp;#34;consolas&amp;#34; ; font-size: 9.8pt&quot;&gt;&lt;pre style=&quot;font-family: &amp;#34;consolas&amp;#34; ; font-size: 9.8pt&quot;&gt;&lt;pre style=&quot;font-size: 9.8pt ; font-family: &amp;#34;consolas&amp;#34;&quot;&gt;&lt;span style=&quot;color: rgb(255 , 198 , 109)&quot;&gt;doconnect&lt;/span&gt;&lt;/pre&gt;&lt;/pre&gt;&lt;/pre&gt;" style="rounded=0;whiteSpace=wrap;html=1;strokeColor=#d6b656;fillColor=#fff2cc;" vertex="1" parent="18">
                    <mxGeometry x="20" y="315" width="70" height="40" as="geometry"/>
                </mxCell>
                <mxCell id="21" value="AbstractNioUnsafe" style="shape=umlLifeline;perimeter=lifelinePerimeter;whiteSpace=wrap;html=1;container=1;collapsible=0;recursiveResize=0;outlineConnect=0;fillColor=#f8cecc;strokeColor=#b85450;fontColor=#000000;" vertex="1" parent="1">
                    <mxGeometry x="750" y="270" width="110" height="450" as="geometry"/>
                </mxCell>
                <mxCell id="22" value="" style="shape=umlDestroy;dashed=0;" vertex="1" parent="21">
                    <mxGeometry x="30" y="280" width="40" height="40" as="geometry"/>
                </mxCell>
                <mxCell id="23" value="&lt;pre style=&quot;background-color: #2b2b2b ; color: #a9b7c6 ; font-family: &amp;#34;consolas&amp;#34; ; font-size: 9.8pt&quot;&gt;&lt;pre style=&quot;font-family: &amp;#34;consolas&amp;#34; ; font-size: 9.8pt&quot;&gt;&lt;pre style=&quot;font-size: 9.8pt ; font-family: &amp;#34;consolas&amp;#34;&quot;&gt;&lt;span style=&quot;color: rgb(255 , 198 , 109)&quot;&gt;doconnect&lt;/span&gt;&lt;/pre&gt;&lt;/pre&gt;&lt;/pre&gt;" style="rounded=0;whiteSpace=wrap;html=1;strokeColor=#d6b656;fillColor=#fff2cc;" vertex="1" parent="21">
                    <mxGeometry x="20" y="390" width="70" height="40" as="geometry"/>
                </mxCell>
                <mxCell id="24" value="niosocketchannel" style="shape=umlLifeline;perimeter=lifelinePerimeter;whiteSpace=wrap;html=1;container=1;collapsible=0;recursiveResize=0;outlineConnect=0;fillColor=#f8cecc;strokeColor=#b85450;fontColor=#000000;" vertex="1" parent="1">
                    <mxGeometry x="890" y="270" width="110" height="580" as="geometry"/>
                </mxCell>
                <mxCell id="25" value="" style="shape=umlDestroy;dashed=0;" vertex="1" parent="24">
                    <mxGeometry x="30" y="280" width="40" height="40" as="geometry"/>
                </mxCell>
                <mxCell id="26" value="&lt;pre style=&quot;background-color: #2b2b2b ; color: #a9b7c6 ; font-family: &amp;#34;consolas&amp;#34; ; font-size: 9.8pt&quot;&gt;&lt;pre style=&quot;font-family: &amp;#34;consolas&amp;#34; ; font-size: 9.8pt&quot;&gt;&lt;span style=&quot;color: #ffc66d&quot;&gt;doconnect&lt;/span&gt;&lt;/pre&gt;&lt;/pre&gt;" style="rounded=0;whiteSpace=wrap;html=1;strokeColor=#d6b656;fillColor=#fff2cc;" vertex="1" parent="1">
                    <mxGeometry x="910" y="730" width="70" height="40" as="geometry"/>
                </mxCell>
                <mxCell id="27" value="socketchannel" style="shape=umlLifeline;perimeter=lifelinePerimeter;whiteSpace=wrap;html=1;container=1;collapsible=0;recursiveResize=0;outlineConnect=0;fillColor=#f8cecc;strokeColor=#b85450;fontColor=#000000;" vertex="1" parent="1">
                    <mxGeometry x="1020" y="270" width="110" height="580" as="geometry"/>
                </mxCell>
                <mxCell id="28" value="" style="shape=umlDestroy;dashed=0;" vertex="1" parent="27">
                    <mxGeometry x="30" y="280" width="40" height="40" as="geometry"/>
                </mxCell>
                <mxCell id="29" value="&lt;pre style=&quot;background-color: #2b2b2b ; color: #a9b7c6 ; font-family: &amp;#34;consolas&amp;#34; ; font-size: 9.8pt&quot;&gt;&lt;pre style=&quot;font-family: &amp;#34;consolas&amp;#34; ; font-size: 9.8pt&quot;&gt;&lt;span style=&quot;color: #ffc66d&quot;&gt;connect&lt;/span&gt;&lt;/pre&gt;&lt;/pre&gt;" style="rounded=0;whiteSpace=wrap;html=1;strokeColor=#d6b656;fillColor=#fff2cc;" vertex="1" parent="1">
                    <mxGeometry x="1040" y="770" width="70" height="40" as="geometry"/>
                </mxCell>
            </root>
        </mxGraphModel>
    </diagram>
</mxfile>